# xmcd
#
# Track frame offsets: 
#        150
#        17058
#        38954
#        55899
#        75724
#        107060
#
# Disc length: 2170 seconds
#
# Revision: 0
# Processed by: cddbd v1.4PL0 Copyright (c) Steve Scherf et al.
# Submitted via: ExactAudioCopy v0.95a3
#
DISCID=44087806
DTITLE=Blanche - America's Newest Hitmakers EP
DYEAR=2003
DGENRE=Alternative
TTITLE0=Do You Trust Me?
TTITLE1=So Long Cruel World
TTITLE2=Another Lost Summer
TTITLE3=Red Head
TTITLE4=Who's To Say...
TTITLE5=Do You Trust Me? (video)
EXTD=
EXTT0=
EXTT1=
EXTT2=
EXTT3=
EXTT4=
EXTT5=
PLAYORDER=
